<svg width="16" height="16" viewBox="0 0 16 16" fill="none" xmlns="http://www.w3.org/2000/svg">
<rect width="16" height="16" fill="#F0F0F0"/>
<g clip-path="url(#clip0_0_88)">
<rect width="1440" height="4628" transform="translate(-1259 -4576)" fill="white"/>
<path opacity="0.5" d="M-1398.9 -959.734C-618.181 -848.261 349.528 -959.734 349.528 -959.734C349.528 -959.734 985.764 105.308 349.528 -50.4866C-286.707 -206.281 -915.657 -4.82275 -1398.9 -50.4866C-1882.15 -96.1504 -2179.63 -1071.21 -1398.9 -959.734Z" fill="#E7ECFF"/>
<rect x="-1259" y="-164" width="1440" height="216" fill="#E7ECFF"/>
<path fill-rule="evenodd" clip-rule="evenodd" d="M5 0H11C13.761 0 16 2.239 16 5V11C16 13.761 13.761 16 11 16H5C2.239 16 0 13.761 0 11V5C0 2.239 2.239 0 5 0ZM11 14.5C12.93 14.5 14.5 12.93 14.5 11V5C14.5 3.07 12.93 1.5 11 1.5H5C3.07 1.5 1.5 3.07 1.5 5V11C1.5 12.93 3.07 14.5 5 14.5H11ZM4 8C4 5.791 5.791 4 8 4C10.209 4 12 5.791 12 8C12 10.209 10.209 12 8 12C5.791 12 4 10.209 4 8ZM5.5 8C5.5 9.378 6.622 10.5 8 10.5C9.378 10.5 10.5 9.378 10.5 8C10.5 6.621 9.378 5.5 8 5.5C6.622 5.5 5.5 6.621 5.5 8ZM12.833 3.7C12.833 3.99437 12.5944 4.233 12.3 4.233C12.0057 4.233 11.767 3.99437 11.767 3.7C11.767 3.40564 12.0057 3.167 12.3 3.167C12.5944 3.167 12.833 3.40564 12.833 3.7Z" fill="#B0B8BC"/>
</g>
<defs>
<clipPath id="clip0_0_88">
<rect width="1440" height="4628" fill="white" transform="translate(-1259 -4576)"/>
</clipPath>
</defs>
</svg>
